<svg xmlns="http://www.w3.org/2000/svg" version="1.1" xmlns:xlink="http://www.w3.org/1999/xlink" xmlns:svgjs="http://svgjs.dev/svgjs" width="1920" height="590" preserveAspectRatio="none" viewBox="0 0 1920 590"><g mask="url(&quot;#SvgjsMask1067&quot;)" fill="none"><path d="M1838.865,521.562C1871.592,521.564,1908.495,520.893,1925.976,493.226C1944.27,464.272,1934.584,427.214,1917.079,397.776C1900.025,369.097,1872.224,346,1838.865,346.734C1806.508,347.446,1782.932,373.272,1766.392,401.091C1749.362,429.735,1734.599,464.658,1751.777,493.213C1768.644,521.252,1806.144,521.56,1838.865,521.562" fill="rgba(255, 255, 255, 0.81)" class="triangle-float1"></path><path d="M895.713,347.101C933.156,347.487,973.928,345.032,995.239,314.243C1019.165,279.677,1020.699,233.163,999.84,196.664C978.833,159.907,938.045,139.546,895.713,140.098C854.341,140.637,816.344,163.186,796.185,199.319C776.522,234.563,777.134,278.754,799.678,312.228C820.068,342.504,859.213,346.725,895.713,347.101" fill="rgba(255, 255, 255, 0.81)" class="triangle-float1"></path><path d="M450.128,743.979C494.392,742.383,529.303,710.017,550.403,671.073C570.396,634.173,575.186,589.421,553.258,553.637C532.163,519.212,490.496,508.122,450.128,507.433C408.189,506.717,363.898,515.054,340.716,550.011C315.276,588.373,313.881,638.692,336.496,678.785C359.491,719.551,403.354,745.665,450.128,743.979" fill="rgba(255, 255, 255, 0.81)" class="triangle-float3"></path><path d="M1922.446,656.663C1972.576,654.043,2011.645,615.906,2033.661,570.794C2053.002,531.164,2046.613,485.816,2024.421,447.709C2002.395,409.888,1966.179,381.546,1922.446,379.822C1875.652,377.978,1831.174,399.897,1805.528,439.081C1777.075,482.554,1764.495,537.811,1789.088,583.579C1814.805,631.437,1868.19,659.499,1922.446,656.663" fill="rgba(255, 255, 255, 0.81)" class="triangle-float3"></path><path d="M207.149,473.665C230.197,475.242,255.851,472.96,268.665,453.738C282.581,432.863,281.256,404.334,267.233,383.531C254.519,364.67,229.895,362.426,207.149,362.48C184.536,362.534,158.89,364.248,147.559,383.817C136.214,403.412,146.154,427.342,158.669,446.211C169.671,462.799,187.29,472.306,207.149,473.665" fill="rgba(255, 255, 255, 0.81)" class="triangle-float1"></path><path d="M943.727,172.027C974.358,173.757,1005.028,162.26,1021.999,136.701C1040.895,108.242,1048.132,70.669,1030.426,41.455C1013.188,13.013,976.925,5.549,943.727,7.553C914.273,9.331,887.286,24.872,873.443,50.932C860.38,75.525,865.423,104.564,879.402,128.648C893.316,152.621,916.053,170.464,943.727,172.027" fill="rgba(255, 255, 255, 0.81)" class="triangle-float3"></path><path d="M1410.431,589.478C1453.136,593.21,1502.438,591.281,1525.38,555.069C1549.339,517.253,1535.67,468.004,1511.1,430.582C1489.008,396.935,1450.665,378.828,1410.431,379.994C1372.231,381.101,1337.476,402.475,1319.382,436.136C1302.183,468.133,1307.157,506.384,1325.704,537.62C1343.823,568.136,1375.076,586.388,1410.431,589.478" fill="rgba(255, 255, 255, 0.81)" class="triangle-float3"></path><path d="M765.528,422.647C806.941,422.376,843.754,397.177,863.582,360.818C882.587,325.969,881.355,283.111,859.803,249.778C839.891,218.982,802.188,210.13,765.528,209.166C726.536,208.141,683.646,211.967,662.257,244.584C639.224,279.708,644.157,325.78,665.23,362.114C686.227,398.319,723.676,422.92,765.528,422.647" fill="rgba(255, 255, 255, 0.81)" class="triangle-float3"></path><path d="M602.71,397.33C665.692,398.061,724.206,363.252,754.828,308.211C784.652,254.605,777.564,190.259,747.739,136.653C716.956,81.325,666.002,33.098,602.71,34.798C541.467,36.443,499.737,90.218,470.573,144.096C443.147,194.763,429.935,253.671,456.587,304.749C485.177,359.539,540.913,396.613,602.71,397.33" fill="rgba(255, 255, 255, 0.81)" class="triangle-float2"></path><path d="M646.501,677.223C686.152,676.69,718.118,648.27,737.506,613.678C756.406,579.957,762.87,538.574,742.695,505.599C723.222,473.771,683.81,464.463,646.501,464.932C610.187,465.389,573.775,477.244,554.408,507.966C533.781,540.687,532.669,582.208,551.156,616.184C570.487,651.712,606.059,677.767,646.501,677.223" fill="rgba(255, 255, 255, 0.81)" class="triangle-float3"></path><path d="M1701.074,236.082C1744.114,232.663,1780.828,209.356,1804.179,173.04C1830.024,132.845,1849.851,82.791,1826.418,41.144C1802.688,-1.032,1749.39,-12.956,1701.074,-10.213C1657.791,-7.756,1622.365,18.127,1598.173,54.102C1569.895,96.154,1540.131,147.919,1565.074,192.031C1590.213,236.489,1650.161,240.126,1701.074,236.082" fill="rgba(255, 255, 255, 0.81)" class="triangle-float3"></path><path d="M1334.594,719.597C1386.075,716.366,1418.791,670.406,1444.032,625.422C1468.543,581.74,1488.9,530.959,1465.204,486.83C1440.53,440.88,1386.747,422.212,1334.594,421.615C1281.208,421.004,1226.864,438.424,1198.699,483.779C1169.098,531.446,1170.445,592.219,1198.46,640.834C1226.515,689.518,1278.515,723.116,1334.594,719.597" fill="rgba(255, 255, 255, 0.81)" class="triangle-float2"></path><path d="M1846.614,342.466C1881.788,343.267,1917.708,329.155,1934.642,298.315C1951.085,268.369,1939.845,233.111,1922.969,203.408C1905.827,173.238,1881.313,143.647,1846.614,143.381C1811.592,143.113,1784.809,171.386,1768.205,202.223C1752.575,231.251,1749.178,265.68,1765.267,294.457C1781.735,323.912,1812.877,341.698,1846.614,342.466" fill="rgba(255, 255, 255, 0.81)" class="triangle-float1"></path><path d="M1516.301,525.606C1556.414,528.693,1595.051,503.098,1612.309,466.755C1627.766,434.205,1608.732,399.565,1591.067,368.159C1572.876,335.817,1553.399,296.887,1516.301,296.064C1478.448,295.224,1451.543,330.386,1435.558,364.708C1422.087,393.632,1428.564,425.2,1442.875,453.718C1459.341,486.53,1479.697,522.789,1516.301,525.606" fill="rgba(255, 255, 255, 0.81)" class="triangle-float3"></path></g><defs><mask id="SvgjsMask1067"><rect width="1920" height="590" fill="#ffffff"></rect></mask><style>
                @keyframes float1 {
                    0%{transform: translate(0, 0)}
                    50%{transform: translate(-10px, 0)}
                    100%{transform: translate(0, 0)}
                }

                .triangle-float1 {
                    animation: float1 5s infinite;
                }

                @keyframes float2 {
                    0%{transform: translate(0, 0)}
                    50%{transform: translate(-5px, -5px)}
                    100%{transform: translate(0, 0)}
                }

                .triangle-float2 {
                    animation: float2 4s infinite;
                }

                @keyframes float3 {
                    0%{transform: translate(0, 0)}
                    50%{transform: translate(0, -10px)}
                    100%{transform: translate(0, 0)}
                }

                .triangle-float3 {
                    animation: float3 6s infinite;
                }
            </style></defs></svg>